# Blender v2.79 (sub 0) OBJ File: ''
# www.blender.org
g original_LOD1
v 0.006267 0.500000 0.049606
v 0.031333 -0.500000 0.248029
v 0.062172 -0.500000 0.242146
v 0.092031 -0.500000 0.232444
v 0.029389 0.500000 0.040451
v 0.146946 -0.500000 0.202254
v 0.034227 0.500000 0.036448
v 0.192628 -0.500000 0.159356
v 0.042216 0.500000 0.026791
v 0.047553 0.500000 0.015451
v 0.237764 -0.500000 0.077254
v 0.249507 -0.500000 0.015698
v 0.047553 0.500000 -0.015451
v 0.237764 -0.500000 -0.077254
v 0.226207 -0.500000 -0.106445
v 0.042216 0.500000 -0.026791
v 0.211082 -0.500000 -0.133957
v 0.038526 0.500000 -0.031871
v 0.192628 -0.500000 -0.159356
v 0.171137 -0.500000 -0.182242
v 0.146946 -0.500000 -0.202254
v 0.120438 -0.500000 -0.219077
v 0.018406 0.500000 -0.046489
v 0.012434 0.500000 -0.048429
v 0.031333 -0.500000 -0.248029
v -0.000000 0.500000 -0.050000
v -0.031333 -0.500000 -0.248029
v -0.120438 -0.500000 -0.219077
v -0.146946 -0.500000 -0.202254
v -0.034227 0.500000 -0.036448
v -0.171137 -0.500000 -0.182242
v -0.042216 0.500000 -0.026791
v -0.045241 0.500000 -0.021289
v -0.245572 -0.500000 -0.046845
v -0.237764 -0.500000 0.077254
v -0.226207 -0.500000 0.106445
v -0.042216 0.500000 0.026791
v -0.192628 -0.500000 0.159356
v -0.171137 -0.500000 0.182242
v -0.029389 0.500000 0.040451
v -0.120438 -0.500000 0.219077
v -0.012434 0.500000 0.048429
v -0.062172 -0.500000 0.242146
v -0.006267 0.500000 0.049606
v -0.031333 -0.500000 0.248029
v -0.000000 0.500000 0.050000
v -0.000000 0.500000 0.000000
v 0.012434 0.500000 0.048429
v 0.018406 0.500000 0.046489
v 0.024088 0.500000 0.043815
v 0.038526 0.500000 0.031871
v 0.045241 0.500000 0.021289
v 0.049114 0.500000 0.009369
v 0.049901 0.500000 0.003140
v 0.049901 0.500000 -0.003140
v 0.049114 0.500000 -0.009369
v 0.045241 0.500000 -0.021289
v 0.034227 0.500000 -0.036448
v 0.029389 0.500000 -0.040451
v 0.024088 0.500000 -0.043815
v 0.006267 0.500000 -0.049606
v -0.006267 0.500000 -0.049606
v -0.012434 0.500000 -0.048429
v -0.018406 0.500000 -0.046489
v -0.024088 0.500000 -0.043815
v -0.029389 0.500000 -0.040451
v -0.038526 0.500000 -0.031871
v -0.047553 0.500000 -0.015451
v -0.049114 0.500000 -0.009369
v -0.049901 0.500000 -0.003140
v -0.049901 0.500000 0.003140
v -0.049114 0.500000 0.009369
v -0.047553 0.500000 0.015451
v -0.045241 0.500000 0.021289
v -0.038526 0.500000 0.031871
v -0.034227 0.500000 0.036448
v -0.024088 0.500000 0.043815
v -0.018406 0.500000 0.046489
v -0.000000 -0.500000 0.250000
v -0.000000 -0.500000 -0.000000
v 0.120438 -0.500000 0.219077
v 0.171137 -0.500000 0.182242
v 0.211082 -0.500000 0.133957
v 0.226207 -0.500000 0.106445
v 0.245572 -0.500000 0.046845
v 0.249507 -0.500000 -0.015698
v 0.245572 -0.500000 -0.046845
v 0.092031 -0.500000 -0.232444
v 0.062172 -0.500000 -0.242146
v -0.000000 -0.500000 -0.250000
v -0.062172 -0.500000 -0.242146
v -0.092031 -0.500000 -0.232444
v -0.192628 -0.500000 -0.159356
v -0.211082 -0.500000 -0.133957
v -0.226207 -0.500000 -0.106445
v -0.237764 -0.500000 -0.077254
v -0.249507 -0.500000 -0.015698
v -0.249507 -0.500000 0.015698
v -0.245572 -0.500000 0.046845
v -0.211082 -0.500000 0.133957
v -0.146946 -0.500000 0.202254
v -0.092031 -0.500000 0.232444
vt 0.694310 0.001696
vt 0.679136 0.671428
vt 0.690367 0.001565
vt 0.659422 0.670775
vt 0.686337 0.001326
vt 0.639272 0.669578
vt 0.682284 0.000981
vt 0.619006 0.667856
vt 0.678271 0.000537
vt 0.598941 0.665635
vt 0.674362 0.000000
vt 0.579395 0.662950
vt 0.319466 0.998274
vt 0.323259 0.328474
vt 0.323259 0.998316
vt 0.992413 0.669802
vt 0.973445 0.669802
vt 0.976806 0.000000
vt 0.793070 0.671526
vt 0.698103 0.008576
vt 0.796979 0.670989
vt 0.717649 0.005891
vt 0.800992 0.670545
vt 0.737714 0.003670
vt 0.805045 0.670200
vt 0.757981 0.001948
vt 0.809075 0.669961
vt 0.778130 0.000751
vt 0.813018 0.669831
vt 0.797844 0.000098
vt 0.816811 0.669811
vt 0.816812 0.000000
vt 0.198633 0.999614
vt 0.118708 0.334626
vt 0.202554 0.999168
vt 0.138310 0.332398
vt 0.206575 0.998818
vt 0.158419 0.330645
vt 0.210636 0.998568
vt 0.178720 0.329395
vt 0.214670 0.998422
vt 0.198891 0.328667
vt 0.218614 0.998384
vt 0.218614 0.328474
vt 0.992413 0.669800
vt 0.996207 0.000000
vt 0.996207 0.669842
vt 0.954482 0.669989
vt 0.935520 0.669535
vt 0.954482 0.000000
vt 0.094967 1.000000
vt 0.000000 0.337050
vt 0.098876 0.999463
vt 0.019546 0.334365
vt 0.102889 0.999019
vt 0.039611 0.332144
vt 0.106942 0.998674
vt 0.059877 0.330422
vt 0.110972 0.998435
vt 0.080026 0.329225
vt 0.114915 0.998304
vt 0.099740 0.328572
vt 0.118708 0.998285
vt 0.118708 0.328474
vt 0.935520 0.001715
vt 0.935520 0.671526
vt 0.931726 0.001696
vt 0.916552 0.671428
vt 0.927783 0.001565
vt 0.896838 0.670775
vt 0.923753 0.001326
vt 0.876689 0.669578
vt 0.919700 0.000981
vt 0.856422 0.667856
vt 0.915687 0.000537
vt 0.836358 0.665635
vt 0.911778 0.000000
vt 0.816812 0.662950
vt 0.996207 0.669800
vt 1.000000 0.000000
vt 1.000000 0.669842
vt 0.973445 0.669989
vt 0.954482 0.669535
vt 0.973445 0.000000
vt 0.555653 0.671526
vt 0.460687 0.008576
vt 0.559563 0.670989
vt 0.480233 0.005891
vt 0.563576 0.670545
vt 0.500297 0.003670
vt 0.567629 0.670201
vt 0.520564 0.001948
vt 0.571659 0.669961
vt 0.540713 0.000751
vt 0.575602 0.669831
vt 0.560427 0.000098
vt 0.579395 0.669811
vt 0.579395 0.000000
vt 0.318521 0.329704
vt 0.318521 0.999614
vt 0.314576 0.329666
vt 0.298797 0.999420
vt 0.310542 0.329520
vt 0.278626 0.998693
vt 0.306482 0.329270
vt 0.258326 0.997443
vt 0.302460 0.328920
vt 0.238216 0.995690
vt 0.298539 0.328474
vt 0.218614 0.993462
vt 0.460687 0.002336
vt 0.460687 0.672147
vt 0.456893 0.002317
vt 0.441719 0.672049
vt 0.452950 0.002186
vt 0.422005 0.671397
vt 0.448921 0.001947
vt 0.401856 0.670200
vt 0.444867 0.001602
vt 0.381589 0.668477
vt 0.440854 0.001158
vt 0.361525 0.666256
vt 0.436945 0.000621
vt 0.341979 0.663572
vt 0.433201 0.000000
vt 0.323259 0.660466
vt 0.698103 0.001715
vt 0.698103 0.671526
vt 0.461197 0.698218
vt 0.462208 0.694223
vt 0.493013 0.704373
vt 0.463705 0.690388
vt 0.465665 0.686773
vt 0.468056 0.683436
vt 0.470840 0.680429
vt 0.473974 0.677799
vt 0.477409 0.675589
vt 0.481089 0.673833
vt 0.484958 0.672558
vt 0.488953 0.671785
vt 0.493013 0.671526
vt 0.497072 0.671785
vt 0.501068 0.672558
vt 0.504936 0.673833
vt 0.508617 0.675589
vt 0.512051 0.677799
vt 0.515185 0.680429
vt 0.517969 0.683436
vt 0.520360 0.686773
vt 0.522320 0.690388
vt 0.523817 0.694223
vt 0.524829 0.698218
vt 0.525339 0.702311
vt 0.525339 0.706436
vt 0.524829 0.710528
vt 0.523817 0.714524
vt 0.522320 0.718359
vt 0.520360 0.721974
vt 0.517969 0.725311
vt 0.515185 0.728318
vt 0.512051 0.730948
vt 0.508617 0.733158
vt 0.504936 0.734914
vt 0.501068 0.736189
vt 0.497072 0.736962
vt 0.493013 0.737221
vt 0.488953 0.736962
vt 0.484958 0.736189
vt 0.481089 0.734914
vt 0.477409 0.733158
vt 0.473974 0.730948
vt 0.470840 0.728318
vt 0.468056 0.725311
vt 0.465665 0.721974
vt 0.463705 0.718359
vt 0.462208 0.714524
vt 0.461197 0.710528
vt 0.460687 0.706436
vt 0.460687 0.702311
vt 0.050768 0.044513
vt 0.066438 0.031366
vt 0.161630 0.164237
vt 0.036846 0.059548
vt 0.024891 0.076234
vt 0.015094 0.094308
vt 0.007607 0.113485
vt 0.002549 0.133462
vt 0.000000 0.153925
vt 0.000000 0.174550
vt 0.002549 0.195012
vt 0.007607 0.214989
vt 0.015094 0.234166
vt 0.024891 0.252240
vt 0.036846 0.268926
vt 0.050768 0.283961
vt 0.066438 0.297108
vt 0.083610 0.308159
vt 0.102012 0.316941
vt 0.121355 0.323314
vt 0.141332 0.327179
vt 0.161630 0.328474
vt 0.181927 0.327179
vt 0.201905 0.323314
vt 0.221247 0.316941
vt 0.239649 0.308159
vt 0.256821 0.297108
vt 0.272492 0.283961
vt 0.286414 0.268926
vt 0.298368 0.252240
vt 0.308166 0.234166
vt 0.315653 0.214989
vt 0.320710 0.195012
vt 0.323259 0.174550
vt 0.323259 0.153924
vt 0.320710 0.133462
vt 0.315653 0.113485
vt 0.308166 0.094308
vt 0.298368 0.076234
vt 0.286414 0.059548
vt 0.272492 0.044513
vt 0.256821 0.031366
vt 0.239649 0.020315
vt 0.221247 0.011533
vt 0.201905 0.005160
vt 0.181927 0.001295
vt 0.161630 0.000000
vt 0.141332 0.001295
vt 0.121355 0.005160
vt 0.102012 0.011533
vt 0.083610 0.020315
vn 0.0000 0.7298 0.6837
vn 0.0005 -0.5794 0.8151
vn 0.0813 0.7611 0.6436
vn 0.0984 -0.6192 0.7790
vn 0.1613 0.7611 0.6283
vn 0.1953 -0.6192 0.7605
vn 0.2388 0.7611 0.6031
vn 0.2891 -0.6192 0.7301
vn 0.3125 0.7611 0.5684
vn 0.3783 -0.6192 0.6881
vn 0.3813 0.7611 0.5248
vn 0.4615 -0.6192 0.6352
vn 0.4441 0.7611 0.4729
vn 0.5375 -0.6192 0.5724
vn 0.4998 0.7611 0.4135
vn 0.6050 -0.6192 0.5005
vn 0.5477 0.7611 0.3476
vn 0.6630 -0.6192 0.4207
vn 0.5869 0.7611 0.2762
vn 0.7105 -0.6192 0.3343
vn 0.6169 0.7611 0.2005
vn 0.7468 -0.6192 0.2426
vn 0.6372 0.7611 0.1216
vn 0.7713 -0.6192 0.1471
vn 0.6474 0.7611 0.0407
vn 0.7837 -0.6192 0.0493
vn 0.6474 0.7611 -0.0407
vn 0.7837 -0.6192 -0.0493
vn 0.6372 0.7611 -0.1216
vn 0.7713 -0.6192 -0.1471
vn 0.6169 0.7611 -0.2005
vn 0.7468 -0.6192 -0.2426
vn 0.5869 0.7611 -0.2762
vn 0.7105 -0.6192 -0.3343
vn 0.5477 0.7611 -0.3476
vn 0.6630 -0.6192 -0.4207
vn 0.4998 0.7611 -0.4135
vn 0.6050 -0.6192 -0.5005
vn 0.4441 0.7611 -0.4729
vn 0.5375 -0.6192 -0.5724
vn 0.3813 0.7611 -0.5248
vn 0.4615 -0.6192 -0.6352
vn 0.3125 0.7611 -0.5684
vn 0.3783 -0.6192 -0.6881
vn 0.2388 0.7611 -0.6031
vn 0.2891 -0.6192 -0.7301
vn 0.1613 0.7611 -0.6283
vn 0.1953 -0.6192 -0.7605
vn 0.0813 0.7611 -0.6436
vn 0.0984 -0.6192 -0.7790
vn -0.0000 0.7611 -0.6487
vn 0.0000 -0.6192 -0.7852
vn -0.0813 0.7611 -0.6436
vn -0.0984 -0.6192 -0.7790
vn -0.1613 0.7611 -0.6283
vn -0.1953 -0.6192 -0.7605
vn -0.2388 0.7611 -0.6031
vn -0.2891 -0.6192 -0.7301
vn -0.3125 0.7611 -0.5684
vn -0.3783 -0.6192 -0.6881
vn -0.3813 0.7611 -0.5248
vn -0.4615 -0.6192 -0.6352
vn -0.4441 0.7611 -0.4729
vn -0.5375 -0.6192 -0.5724
vn -0.4998 0.7611 -0.4135
vn -0.6050 -0.6192 -0.5005
vn -0.5477 0.7611 -0.3476
vn -0.6630 -0.6192 -0.4207
vn -0.5869 0.7611 -0.2762
vn -0.7105 -0.6192 -0.3343
vn -0.6169 0.7611 -0.2005
vn -0.7468 -0.6192 -0.2426
vn -0.6372 0.7611 -0.1216
vn -0.7713 -0.6192 -0.1471
vn -0.6474 0.7611 -0.0407
vn -0.7837 -0.6192 -0.0493
vn -0.6474 0.7611 0.0407
vn -0.7837 -0.6192 0.0493
vn -0.6372 0.7611 0.1216
vn -0.7713 -0.6192 0.1471
vn -0.6169 0.7611 0.2005
vn -0.7468 -0.6192 0.2426
vn -0.5869 0.7611 0.2762
vn -0.7105 -0.6192 0.3343
vn -0.5477 0.7611 0.3476
vn -0.6630 -0.6192 0.4207
vn -0.4998 0.7611 0.4135
vn -0.6050 -0.6192 0.5005
vn -0.4441 0.7611 0.4729
vn -0.5375 -0.6192 0.5724
vn -0.3813 0.7611 0.5248
vn -0.4615 -0.6192 0.6352
vn -0.3125 0.7611 0.5684
vn -0.3783 -0.6192 0.6881
vn -0.2388 0.7611 0.6031
vn -0.2891 -0.6192 0.7301
vn -0.1613 0.7611 0.6283
vn -0.1953 -0.6192 0.7605
vn -0.0813 0.7611 0.6436
vn -0.0984 -0.6192 0.7790
vn 0.0000 1.0000 -0.0000
vn 0.0000 -1.0000 0.0000
s 1
f 46/1/1 79/2/2 1/3/3
f 79/2/2 2/4/4 1/3/3
f 1/3/3 2/4/4 48/5/5
f 2/4/4 3/6/6 48/5/5
f 48/5/5 3/6/6 49/7/7
f 3/6/6 4/8/8 49/7/7
f 49/7/7 4/8/8 50/9/9
f 4/8/8 81/10/10 50/9/9
f 50/9/9 81/10/10 5/11/11
f 81/10/10 6/12/12 5/11/11
f 5/13/11 6/14/12 7/15/13
f 6/16/12 82/17/14 7/18/13
f 7/19/13 82/20/14 51/21/15
f 82/20/14 8/22/16 51/21/15
f 51/21/15 8/22/16 9/23/17
f 8/22/16 83/24/18 9/23/17
f 9/23/17 83/24/18 52/25/19
f 83/24/18 84/26/20 52/25/19
f 52/25/19 84/26/20 10/27/21
f 84/26/20 11/28/22 10/27/21
f 10/27/21 11/28/22 53/29/23
f 11/28/22 85/30/24 53/29/23
f 53/29/23 85/30/24 54/31/25
f 85/30/24 12/32/26 54/31/25
f 54/33/25 12/34/26 55/35/27
f 12/34/26 86/36/28 55/35/27
f 55/35/27 86/36/28 56/37/29
f 86/36/28 87/38/30 56/37/29
f 56/37/29 87/38/30 13/39/31
f 87/38/30 14/40/32 13/39/31
f 13/39/31 14/40/32 57/41/33
f 14/40/32 15/42/34 57/41/33
f 57/41/33 15/42/34 16/43/35
f 15/42/34 17/44/36 16/43/35
f 16/45/35 17/46/36 18/47/37
f 17/48/36 19/49/38 18/50/37
f 18/51/37 19/52/38 58/53/39
f 19/52/38 20/54/40 58/53/39
f 58/53/39 20/54/40 59/55/41
f 20/54/40 21/56/42 59/55/41
f 59/55/41 21/56/42 60/57/43
f 21/56/42 22/58/44 60/57/43
f 60/57/43 22/58/44 23/59/45
f 22/58/44 88/60/46 23/59/45
f 23/59/45 88/60/46 24/61/47
f 88/60/46 89/62/48 24/61/47
f 24/61/47 89/62/48 61/63/49
f 89/62/48 25/64/50 61/63/49
f 61/65/49 25/66/50 26/67/51
f 25/66/50 90/68/52 26/67/51
f 26/67/51 90/68/52 62/69/53
f 90/68/52 27/70/54 62/69/53
f 62/69/53 27/70/54 63/71/55
f 27/70/54 91/72/56 63/71/55
f 63/71/55 91/72/56 64/73/57
f 91/72/56 92/74/58 64/73/57
f 64/73/57 92/74/58 65/75/59
f 92/74/58 28/76/60 65/75/59
f 65/75/59 28/76/60 66/77/61
f 28/76/60 29/78/62 66/77/61
f 66/79/61 29/80/62 30/81/63
f 29/82/62 31/83/64 30/84/63
f 30/85/63 31/86/64 67/87/65
f 31/86/64 93/88/66 67/87/65
f 67/87/65 93/88/66 32/89/67
f 93/88/66 94/90/68 32/89/67
f 32/89/67 94/90/68 33/91/69
f 94/90/68 95/92/70 33/91/69
f 33/91/69 95/92/70 68/93/71
f 95/92/70 96/94/72 68/93/71
f 68/93/71 96/94/72 69/95/73
f 96/94/72 34/96/74 69/95/73
f 69/95/73 34/96/74 70/97/75
f 34/96/74 97/98/76 70/97/75
f 70/99/75 97/100/76 71/101/77
f 97/100/76 98/102/78 71/101/77
f 71/101/77 98/102/78 72/103/79
f 98/102/78 99/104/80 72/103/79
f 72/103/79 99/104/80 73/105/81
f 99/104/80 35/106/82 73/105/81
f 73/105/81 35/106/82 74/107/83
f 35/106/82 36/108/84 74/107/83
f 74/107/83 36/108/84 37/109/85
f 36/108/84 100/110/86 37/109/85
f 37/111/85 100/112/86 75/113/87
f 100/112/86 38/114/88 75/113/87
f 75/113/87 38/114/88 76/115/89
f 38/114/88 39/116/90 76/115/89
f 76/115/89 39/116/90 40/117/91
f 39/116/90 101/118/92 40/117/91
f 40/117/91 101/118/92 77/119/93
f 101/118/92 41/120/94 77/119/93
f 77/119/93 41/120/94 78/121/95
f 41/120/94 102/122/96 78/121/95
f 78/121/95 102/122/96 42/123/97
f 102/122/96 43/124/98 42/123/97
f 42/123/97 43/124/98 44/125/99
f 43/124/98 45/126/100 44/125/99
f 44/127/99 45/128/100 46/1/1
f 45/128/100 79/2/2 46/1/1
f 46/129/1 1/130/3 47/131/101
f 1/130/3 48/132/5 47/131/101
f 48/132/5 49/133/7 47/131/101
f 49/133/7 50/134/9 47/131/101
f 50/134/9 5/135/11 47/131/101
f 5/135/11 7/136/13 47/131/101
f 7/136/13 51/137/15 47/131/101
f 51/137/15 9/138/17 47/131/101
f 9/138/17 52/139/19 47/131/101
f 52/139/19 10/140/21 47/131/101
f 10/140/21 53/141/23 47/131/101
f 53/141/23 54/142/25 47/131/101
f 54/142/25 55/143/27 47/131/101
f 55/143/27 56/144/29 47/131/101
f 56/144/29 13/145/31 47/131/101
f 13/145/31 57/146/33 47/131/101
f 57/146/33 16/147/35 47/131/101
f 16/147/35 18/148/37 47/131/101
f 18/148/37 58/149/39 47/131/101
f 58/149/39 59/150/41 47/131/101
f 59/150/41 60/151/43 47/131/101
f 60/151/43 23/152/45 47/131/101
f 23/152/45 24/153/47 47/131/101
f 24/153/47 61/154/49 47/131/101
f 61/154/49 26/155/51 47/131/101
f 26/155/51 62/156/53 47/131/101
f 62/156/53 63/157/55 47/131/101
f 63/157/55 64/158/57 47/131/101
f 64/158/57 65/159/59 47/131/101
f 65/159/59 66/160/61 47/131/101
f 66/160/61 30/161/63 47/131/101
f 30/161/63 67/162/65 47/131/101
f 67/162/65 32/163/67 47/131/101
f 32/163/67 33/164/69 47/131/101
f 33/164/69 68/165/71 47/131/101
f 68/165/71 69/166/73 47/131/101
f 69/166/73 70/167/75 47/131/101
f 70/167/75 71/168/77 47/131/101
f 71/168/77 72/169/79 47/131/101
f 72/169/79 73/170/81 47/131/101
f 73/170/81 74/171/83 47/131/101
f 74/171/83 37/172/85 47/131/101
f 37/172/85 75/173/87 47/131/101
f 75/173/87 76/174/89 47/131/101
f 76/174/89 40/175/91 47/131/101
f 40/175/91 77/176/93 47/131/101
f 77/176/93 78/177/95 47/131/101
f 78/177/95 42/178/97 47/131/101
f 42/178/97 44/179/99 47/131/101
f 44/179/99 46/129/1 47/131/101
f 2/180/4 79/181/2 80/182/102
f 3/183/6 2/180/4 80/182/102
f 4/184/8 3/183/6 80/182/102
f 81/185/10 4/184/8 80/182/102
f 6/186/12 81/185/10 80/182/102
f 82/187/14 6/186/12 80/182/102
f 8/188/16 82/187/14 80/182/102
f 83/189/18 8/188/16 80/182/102
f 84/190/20 83/189/18 80/182/102
f 11/191/22 84/190/20 80/182/102
f 85/192/24 11/191/22 80/182/102
f 12/193/26 85/192/24 80/182/102
f 86/194/28 12/193/26 80/182/102
f 87/195/30 86/194/28 80/182/102
f 14/196/32 87/195/30 80/182/102
f 15/197/34 14/196/32 80/182/102
f 17/198/36 15/197/34 80/182/102
f 19/199/38 17/198/36 80/182/102
f 20/200/40 19/199/38 80/182/102
f 21/201/42 20/200/40 80/182/102
f 22/202/44 21/201/42 80/182/102
f 88/203/46 22/202/44 80/182/102
f 89/204/48 88/203/46 80/182/102
f 25/205/50 89/204/48 80/182/102
f 90/206/52 25/205/50 80/182/102
f 27/207/54 90/206/52 80/182/102
f 91/208/56 27/207/54 80/182/102
f 92/209/58 91/208/56 80/182/102
f 28/210/60 92/209/58 80/182/102
f 29/211/62 28/210/60 80/182/102
f 31/212/64 29/211/62 80/182/102
f 93/213/66 31/212/64 80/182/102
f 94/214/68 93/213/66 80/182/102
f 95/215/70 94/214/68 80/182/102
f 96/216/72 95/215/70 80/182/102
f 34/217/74 96/216/72 80/182/102
f 97/218/76 34/217/74 80/182/102
f 98/219/78 97/218/76 80/182/102
f 99/220/80 98/219/78 80/182/102
f 35/221/82 99/220/80 80/182/102
f 36/222/84 35/221/82 80/182/102
f 100/223/86 36/222/84 80/182/102
f 38/224/88 100/223/86 80/182/102
f 39/225/90 38/224/88 80/182/102
f 101/226/92 39/225/90 80/182/102
f 41/227/94 101/226/92 80/182/102
f 102/228/96 41/227/94 80/182/102
f 43/229/98 102/228/96 80/182/102
f 45/230/100 43/229/98 80/182/102
f 79/181/2 45/230/100 80/182/102
